PathFileType	4	(X/Y/Z)	C:/Users/beibeiliu/ov580/test_trc/User3\sequence.10_training_dense_left.trc
DataRate	CameraRate	NumFrames	NumMarkers	Units	OrigDataRate	OrigDataStartFrame	OrigNumFrames
120	120	13	19	mm	120	1	117
Frame#	Time	ThumbCMC			ThumbMCP			ThumbIP			ThumbTip			IndexMCP			IndexPIP			IndexTip			MiddleMCP			MiddlePIP			MiddleTip			RingMCP			RingPIP			RingTip			PinkyMCP			PinkyPIP			PinkyTip			BackHand1			BackHand2			BackHand3	
		X0	Y0	Z0	X1	Y1	Z1	X2	Y2	Z2	X3	Y3	Z3	X4	Y4	Z4	X5	Y5	Z5	X6	Y6	Z6	X7	Y7	Z7	X8	Y8	Z8	X9	Y9	Z9	X10	Y10	Z10	X11	Y11	Z11	X12	Y12	Z12	X13	Y13	Z13	X14	Y14	Z14	X15	Y15	Z15	X16	Y16	Z16	X17	Y17	Z17	X18	Y18	Z18	
0	0	-126.712	-54.8158	20.3545	-115.754	-72.0924	-6.58607	-110.436	-85.6037	-35.178	-124.946	-97.1253	-59.6295	-146.092	-41.9301	-53.9872	-139.699	-65.7013	-73.341	-139.643	-100.547	-72.6039	-168.615	-29.3495	-58.1243	-167.854	-34.9476	-87.3557	-166.905	-50.2448	-116.354	-187.471	-33.2642	-51.0769	-190.81	-34.1613	-73.9257	-194.057	-43.6351	-100.399	-210.522	-45.1014	-34.7161	-215.718	-47.3938	-53.9252	-217.275	-52.9289	-79.1744	-188.303	-27.2071	1.29856	-188.697	-30.8162	36.0422	-156.403	-25.0148	15.751	
1	0.00833333	-129.491	-54.5324	18.1782	-115.576	-70.4004	-7.82336	-115.711	-82.8483	-33.992	-125.543	-96.0088	-58.0338	-148.112	-42.2359	-55.5744	-143.187	-68.8938	-75.6965	-143.275	-100.687	-72.1227	-169.42	-29.1946	-60.8194	-168.588	-34.0938	-85.2422	-168.895	-50.7351	-116.469	-193.389	-33.1187	-48.989	-191.48	-34.3926	-74.4286	-195.299	-44.7778	-105.427	-208.828	-45.9619	-31.1335	-217.817	-47.6889	-58.9968	-221.875	-52.1073	-78.1861	-191.435	-29.1735	4.81827	-189.078	-29.2857	33.2965	-156.779	-25.4977	13.6687	
2	0.0166667	-130.314	-54.5805	20.3902	-117.329	-69.2836	-4.52827	-113.831	-83.3005	-37.3463	-124.033	-93.7876	-53.4692	-143.87	-44.2076	-57.8818	-144.005	-66.3652	-74.3612	-139.448	-96.5778	-72.6643	-172.745	-28.5116	-57.236	-169.853	-34.4528	-85.9718	-166.83	-49.0614	-114.851	-189.113	-32.8811	-46.8409	-192.96	-35.6068	-78.4014	-197.227	-45.1579	-103.865	-211.229	-44.6383	-32.0016	-218.522	-47.9375	-56.4307	-220.489	-53.9861	-77.7026	-192.909	-28.1408	4.66507	-189.04	-30.5027	33.0425	-158.903	-25.9394	16.7483	
3	0.025	-128.323	-52.9424	15.8012	-119.629	-68.068	-7.32183	-115.621	-81.3368	-35.0067	-122.849	-93.1848	-53.2219	-147.818	-42.9425	-57.0906	-140.865	-68.4942	-75.4443	-145.432	-93.9746	-73.4288	-171.649	-28.0667	-55.5127	-171.373	-34.5018	-87.5901	-170.643	-48.9249	-115.04	-190.199	-32.2468	-49.1352	-195.165	-35.2686	-76.5941	-196.375	-42.6778	-98.9161	-207.624	-45.2047	-30.6677	-215.402	-45.7472	-55.8804	-222.342	-51.7011	-77.5742	-192.386	-28.2936	1.95909	-193.963	-30.0394	32.6361	-158.794	-24.304	14.0746	
4	0.0333333	-133.536	-51.7411	19.718	-119.526	-66.4249	-9.27291	-113.386	-80.3419	-34.3746	-122.699	-92.6555	-56.1773	-146.373	-38.8576	-54.4674	-143.041	-61.5806	-74.6105	-140.822	-92.2718	-74.3228	-171.031	-25.8511	-61.0894	-169.832	-34.4052	-89.396	-169.136	-46.0835	-113.826	-196.296	-33.0696	-48.0901	-195.538	-33.9669	-77.8757	-199.654	-44.0127	-102.753	-214.477	-45.2949	-32.7298	-215.316	-45.9602	-54.3551	-223.558	-51.7515	-77.6356	-194.849	-26.1586	3.05343	-189.973	-27.7414	31.1676	-161.07	-23.9753	14.0349	
5	0.0416667	-134.374	-48.6741	16.0017	-121.36	-63.3165	-7.90873	-117.622	-76.645	-36.8808	-124.012	-90.3086	-56.83	-147.064	-35.8454	-52.8003	-147.241	-62.7302	-74.8014	-142.363	-89.2945	-73.7234	-176.581	-25.1301	-59.4418	-172.32	-30.5855	-86.3422	-173.651	-44.8868	-114.006	-198.195	-30.7757	-47.5095	-199.87	-32.4244	-76.7518	-202.372	-40.7132	-99.2539	-213.747	-42.3642	-31.7149	-217.368	-44.3019	-51.8699	-225.07	-52.5044	-75.7342	-192.686	-24.5629	6.81118	-193.497	-27.3059	33.7922	-159.212	-21.3571	15.742	
6	0.05	-133.259	-46.5615	17.6136	-120.88	-62.3674	-7.87074	-119.671	-76.0656	-30.9458	-126.974	-87.281	-53.1173	-152.652	-36.5945	-55.6855	-145.36	-57.2026	-71.6754	-146.695	-87.4143	-72.4361	-179.386	-23.2238	-58.2721	-174.34	-27.9391	-82.4842	-174.223	-42.256	-114.63	-195.118	-28.3548	-43.7724	-200.406	-29.9366	-72.0858	-201.072	-37.8521	-101.614	-217.76	-41.3159	-30.0115	-222.255	-44.0531	-55.2756	-227.34	-50.5762	-75.5222	-192.725	-24.5399	8.4397	-196.028	-25.6595	37.2904	-163.834	-18.4403	19.0323	
7	0.0583333	-134.978	-45.7673	24.5808	-122.98	-61.8545	-2.46974	-118.637	-74.9681	-33.3674	-126.336	-87.8148	-52.8894	-153.877	-34.7877	-52.7791	-147.484	-61.2767	-70.8297	-150.033	-87.233	-70.5765	-179.808	-22.3712	-55.6417	-177.87	-27.911	-80.9809	-173.506	-43.1714	-114.474	-197.179	-27.1774	-42.64	-204.994	-30.1596	-70.0119	-205.822	-37.9429	-95.1896	-219.96	-39.2955	-29.6986	-223.3	-42.7453	-49.1785	-229.005	-51.1348	-75.4448	-200.022	-23.9998	11.2393	-197.81	-24.5359	37.7281	-162.905	-16.3296	20.1389	
8	0.0666667	-137.229	-45.6572	23.9771	-126.218	-60.7673	-2.75986	-124.146	-73.0899	-28.4111	-132.881	-85.4703	-51.9831	-155.509	-32.9888	-48.3871	-150.558	-60.9976	-69.3899	-147.01	-91.1596	-65.4968	-180.908	-21.196	-49.8976	-182.325	-28.392	-81.9431	-178.02	-41.5878	-109.568	-200.917	-26.3262	-41.6885	-205.978	-28.7951	-67.2224	-204.171	-37.4357	-95.5533	-221.021	-39.9638	-22.6473	-224.823	-41.5917	-45.4679	-231.717	-49.1062	-70.7402	-198.987	-23.3074	11.6212	-199.479	-25.0686	42.9682	-165.935	-18.4034	23.1713	
9	0.075	-138.649	-40.6197	27.2817	-121.675	-56.5017	-1.16022	-117.892	-68.9197	-26.212	-131.35	-80.824	-45.8725	-153.739	-29.3152	-47.5299	-151.917	-51.7462	-66.485	-149.384	-83.663	-65.9193	-179.13	-15.8738	-50.6113	-177.608	-21.5587	-78.5035	-176.446	-35.8748	-106.597	-197.512	-20.3329	-41.007	-206.561	-22.8473	-63.8844	-205.455	-32.2459	-91.9662	-215.76	-35.1113	-20.881	-225.348	-37.7549	-46.4491	-228.802	-44.1054	-68.3084	-201.382	-18.6919	14.2175	-199.271	-19.121	40.6798	-164.657	-13.0638	25.4928	
10	0.0833333	-134.453	-33.0942	26.4802	-121.378	-48.9184	1.03565	-117.976	-62.2404	-26.4303	-127.765	-74.6938	-48.7142	-153.786	-23.2681	-46.4914	-146.385	-45.7439	-64.3051	-147.219	-78.2681	-63.5503	-178.334	-9.09132	-50.4014	-175.943	-14.6736	-75.5341	-177.254	-28.5564	-104.695	-201.543	-16.026	-37.1323	-203.757	-16	-62.5674	-202.649	-24.0754	-92.0658	-213.81	-28.9859	-19.6669	-222.673	-30.0454	-44.4575	-226.387	-37.186	-66.3883	-199.335	-12.8669	16.2985	-196.706	-14.4198	41.2645	-165.248	-6.00579	26.385	
11	0.0916667	-135.199	-29.6839	31.3827	-116.035	-44.3541	4.1901	-112.85	-56.7968	-23.598	-125.572	-68.0343	-43.5138	-149.455	-17.6028	-44.635	-143.348	-42.1992	-62.8579	-143.472	-68.8566	-62.5116	-175.601	-3.84469	-45.138	-175.374	-9.11486	-75.4096	-172.35	-23.3089	-106.26	-197.186	-11.0526	-33.2452	-197.447	-10.3843	-60.1212	-201.526	-17.9442	-86.5895	-210.926	-21.7636	-22.4213	-217.789	-24.4678	-40.4008	-226.052	-31.8036	-66.1011	-197.114	-6.29857	16.7298	-196.623	-9.47091	45.7265	-159.87	-2.41575	26.4956	
12	0.1	-134.323	-25.5864	29.184	-120.712	-41.6848	5.67394	-111.299	-55.1506	-21.6584	-120.94	-66.4097	-44.0795	-147.43	-15.0237	-43.559	-140.16	-38.241	-60.7666	-140.357	-65.0683	-60.5864	-172.346	-0.653687	-44.9754	-173.236	-6.65945	-74.5958	-171.95	-18.2906	-100.834	-197.274	-7.54312	-32.7334	-194.773	-7.22904	-61.449	-198.55	-15.2951	-86.3771	-212.546	-21.5698	-16.1636	-218.109	-22.1653	-37.7445	-223.152	-27.0336	-65.297	-191.326	-4.91664	16.699	-192.281	-7.77559	49.5678	-160.43	-0.864909	31.0705	
